<svg width="221" height="35" viewBox="0 0 221 35" fill="none" xmlns="http://www.w3.org/2000/svg">
<path d="M220.173 10.948C220.668 11.0237 221.006 11.4707 221.006 11.9723V16.9449C221.006 17.5528 220.514 18.0456 219.906 18.0456H218.749C216.722 18.0456 215.124 18.555 213.957 19.5739C212.821 20.5927 212.252 22.2802 212.252 24.6363V33.8994C212.252 34.5073 211.76 35 211.152 35H206.258C205.65 35 205.157 34.5073 205.157 33.8994V12.2689C205.157 11.661 205.65 11.1683 206.258 11.1683H210.85C211.412 11.1683 211.884 11.5917 211.944 12.1505L212.357 15.9713C212.375 16.1353 212.247 16.2785 212.082 16.2785C211.907 16.2785 211.776 16.1195 211.815 15.9497C212.151 14.5059 212.819 13.3101 213.819 12.3622C214.925 11.3115 216.414 10.7862 218.288 10.7862C218.718 10.7862 219.148 10.818 219.578 10.8817C219.773 10.8952 219.972 10.9173 220.173 10.948Z" fill="#2C40DB"/>
<path d="M201.635 22.7751C201.635 25.1351 201.116 27.2434 200.079 29.0999C199.041 30.925 197.622 32.3725 195.822 33.4424C193.991 34.4808 191.901 35 189.551 35C187.171 35 185.081 34.4965 183.28 33.4896C181.449 32.4512 180.015 31.0194 178.978 29.1943C177.94 27.3693 177.421 25.2767 177.421 22.9167C177.421 20.4308 177.925 18.291 178.932 16.4974C179.908 14.7038 181.312 13.3193 183.143 12.3438C184.943 11.3683 187.095 10.8806 189.597 10.8806L190.286 10.8806C190.892 10.8806 191.384 11.3703 191.387 11.9762L191.469 30.0469C191.471 30.6661 190.963 31.1657 190.344 31.1522L188.202 31.1057C187.604 31.0927 187.125 30.6039 187.125 30.0054L187.125 19.2029C187.125 18.595 186.624 18.0808 186.035 18.2322C185.317 18.4169 184.719 18.7984 184.242 19.3766C183.509 20.2263 183.143 21.3905 183.143 22.8695C183.143 24.0967 183.372 25.1036 183.83 25.8903C184.287 26.6455 185.004 27.2119 185.981 27.5895C186.927 27.9671 188.147 28.1559 189.643 28.1559C191.779 28.1559 193.366 27.7154 194.403 26.8343C195.41 25.9218 195.914 24.5215 195.914 22.6335C195.914 21.2489 195.685 20.1004 195.227 19.1878C194.916 18.5677 194.52 18.1001 194.04 17.7851C193.635 17.5197 193.305 17.1108 193.305 16.6269L193.305 12.0788C193.305 11.4009 193.915 10.8789 194.564 11.0746C196.519 11.6639 198.128 12.858 199.392 14.6566C200.888 16.8278 201.635 19.534 201.635 22.7751Z" fill="#2C40DB"/>
<path d="M161.06 33.8994C161.06 34.5072 160.567 35 159.959 35H155.101C154.493 35 154 34.5072 154 33.8994V1.10063C154 0.492767 154.493 0 155.101 0H159.959C160.567 0 161.06 0.492768 161.06 1.10063V16.9879C161.06 18.0306 162.374 18.4888 163.022 17.672L168.155 11.2027C168.364 10.9396 168.682 10.7862 169.018 10.7862H174.962C175.899 10.7862 176.407 11.8819 175.802 12.5973L169.222 20.3822C168.919 20.7408 168.876 21.2522 169.116 21.6557L176.068 33.3365C176.505 34.0701 175.976 35 175.122 35H169.526C169.137 35 168.777 34.7946 168.579 34.4597L164.51 27.5808C164.137 26.9498 163.263 26.8532 162.761 27.3874L161.358 28.8799C161.166 29.084 161.06 29.3535 161.06 29.6336V33.8994Z" fill="#2C40DB"/>
<path d="M135.291 34.932C132.892 34.932 130.978 34.2789 129.55 32.9727C128.153 31.6361 127.454 29.859 127.454 27.6414C127.454 25.5454 128.168 23.8747 129.596 22.6292C131.054 21.3837 133.15 20.6547 135.884 20.442L141.9 19.9693C142.105 19.9532 142.263 19.782 142.263 19.5763C142.263 18.8168 142.111 18.1941 141.807 17.708C141.504 17.1916 141.063 16.8119 140.486 16.5689C139.939 16.2955 139.241 16.1588 138.39 16.1588C136.901 16.1588 135.762 16.4322 134.973 16.979C134.505 17.3157 134.181 17.7447 134.001 18.2657C133.803 18.8404 133.341 19.3484 132.733 19.3484H129.102C128.494 19.3484 127.993 18.8539 128.063 18.2502C128.214 16.9731 128.633 15.8355 129.322 14.8374C130.203 13.5615 131.449 12.5743 133.059 11.8756C134.699 11.1769 136.598 10.8276 138.754 10.8276C140.972 10.8276 142.84 11.2225 144.359 12.0123C145.908 12.8021 147.078 13.9564 147.868 15.4753C148.688 16.9942 149.098 18.8472 149.098 21.0344V33.239C149.098 33.8469 148.605 34.3397 147.997 34.3397H143.439C143.13 34.3397 142.867 34.1136 142.82 33.8078C142.723 33.1638 141.444 32.8834 140.922 33.2716C140.607 33.5053 140.249 33.7246 139.848 33.9296C138.511 34.5979 136.993 34.932 135.291 34.932ZM137.752 29.7375C139.089 29.7375 140.182 29.4185 141.033 28.7806C141.883 28.1123 142.309 27.125 142.309 25.8188V25.7923C142.309 25.1456 141.754 24.6383 141.11 24.6961L138.754 24.9075C137.236 25.029 136.157 25.2872 135.519 25.6821C134.912 26.0466 134.608 26.5934 134.608 27.3225C134.608 28.1427 134.866 28.7502 135.383 29.1451C135.899 29.54 136.689 29.7375 137.752 29.7375Z" fill="#2C40DB"/>
<path d="M93.9663 33.8994C93.9663 34.5073 93.4735 35 92.8657 35H88.0503C87.4425 35 86.9497 34.5073 86.9497 33.8994V12.6376C86.9497 12.0298 87.4425 11.537 88.0503 11.537H92.7672C93.1987 11.537 93.5695 11.8434 93.6508 12.2671L94.1064 14.6408C94.1553 14.8958 93.8349 15.0509 93.6653 14.8543C93.5991 14.7777 93.5843 14.6687 93.6317 14.5792C94.0998 13.6951 94.8947 12.8531 96.0166 12.0532C97.2012 11.2085 98.7351 10.7862 100.618 10.7862C102.623 10.7862 104.233 11.3024 105.448 12.3348C106.527 13.252 107.355 14.4162 107.931 15.8273C108.038 16.0902 107.84 16.3704 107.556 16.3704C107.292 16.3704 107.096 16.1262 107.17 15.8734C107.592 14.4415 108.43 13.262 109.685 12.3348C111.082 11.3024 112.753 10.7862 114.697 10.7862C117.643 10.7862 119.846 11.5996 121.304 13.2263C122.762 14.8218 123.491 16.9648 123.491 19.6552V33.8994C123.491 34.5073 122.998 35 122.39 35H117.575C116.967 35 116.474 34.5073 116.474 33.8994V21.673C116.474 20.2027 116.125 19.1077 115.426 18.3882C114.758 17.6687 113.862 17.3089 112.738 17.3089C112.07 17.3089 111.432 17.4653 110.824 17.7782C110.217 18.0597 109.716 18.5759 109.321 19.3267C108.926 20.0463 108.728 21.0786 108.728 22.4239V33.8994C108.728 34.5073 108.236 35 107.628 35H102.812C102.205 35 101.712 34.5073 101.712 33.8994V21.673C101.712 20.2027 101.378 19.1234 100.709 18.4351C100.041 17.7156 99.1452 17.3558 98.0213 17.3558C97.3531 17.3558 96.7 17.5123 96.0621 17.8251C95.4546 18.1067 94.9535 18.6228 94.5586 19.3737C94.1637 20.0932 93.9663 21.1099 93.9663 22.4239V33.8994Z" fill="#2C40DB"/>
<path d="M72.2234 34.8864C70.0666 34.8864 68.1529 34.4004 66.4821 33.4283C64.8113 32.4259 63.5051 31.0589 62.5634 29.3274C61.6217 27.5655 61.1509 25.5302 61.1509 23.2215C61.1509 20.8825 61.6065 18.832 62.5179 17.0701C63.4596 15.3082 64.7354 13.9261 66.3454 12.9236C67.9858 11.9211 69.8844 11.4199 72.0412 11.4199C74.1676 11.4199 76.0054 11.8756 77.5547 12.7869C79.1343 13.6982 80.3494 14.9741 81.1999 16.6144C82.0809 18.2548 82.5214 20.1838 82.5214 22.4013V22.8981C82.5214 23.505 82.0302 23.9973 81.4233 23.9988L64.568 24.039C63.9454 24.0405 63.4456 23.5257 63.4653 22.9034L63.4865 22.2368C63.5053 21.6428 63.9923 21.1711 64.5866 21.1711H77.1375C77.7454 21.1711 78.2486 20.6757 78.1667 20.0734C77.983 18.7208 77.4449 17.5982 76.5522 16.7056C75.4282 15.5816 73.9246 15.0196 72.0412 15.0196C70.6134 15.0196 69.3831 15.3386 68.3503 15.9765C67.3479 16.5841 66.5732 17.4954 66.0264 18.7105C65.51 19.8952 65.2518 21.3229 65.2518 22.9937C65.2518 25.6669 65.8594 27.7326 67.0745 29.1907C68.2896 30.6184 70.0363 31.3323 72.3146 31.3323C73.9853 31.3323 75.3523 30.9981 76.4155 30.3298C77.2504 29.805 77.8699 29.0928 78.274 28.1934C78.4754 27.7451 78.8959 27.4136 79.3873 27.4136H81.1834C81.8912 27.4136 82.4186 28.0751 82.1757 28.7399C81.54 30.48 80.5009 31.8758 79.0583 32.9271C77.2661 34.2333 74.9878 34.8864 72.2234 34.8864Z" fill="#2C40DB"/>
<path d="M41.0388 33.6793C41.0388 34.2871 40.5461 34.7799 39.9382 34.7799H37.8616C37.2538 34.7799 36.761 34.2871 36.761 33.6793V12.5546C36.761 11.9468 37.2538 11.454 37.8616 11.454H39.8485C40.2948 11.454 40.6715 11.7858 40.7278 12.2286C40.8373 13.0896 42.1614 13.3895 42.8171 12.8209C43.2027 12.4864 43.6264 12.1898 44.088 11.931C45.4229 11.1678 46.8792 10.7862 48.4568 10.7862C51.3694 10.7862 53.5235 11.6607 54.9191 13.4098C56.3148 15.1588 57.0126 17.528 57.0126 20.5172V33.6793C57.0126 34.2871 56.5198 34.7799 55.9119 34.7799H53.8353C53.2275 34.7799 52.7347 34.2871 52.7347 33.6793V21.519C52.7347 19.1657 52.2493 17.4803 51.2784 16.4626C50.3075 15.4132 49.0029 14.8885 47.3646 14.8885C45.3622 14.8885 43.7997 15.5722 42.6772 16.9397C41.585 18.3071 41.0388 20.1356 41.0388 22.4253V33.6793Z" fill="#2C40DB"/>
<path d="M29.0259 10.7862C29.6507 10.7862 30.1572 11.1756 30.1572 11.6561L30.1572 27.5264C30.1572 28.0068 29.6507 28.3963 29.0259 28.3963H26.8859C26.2611 28.3963 25.7546 28.0068 25.7546 27.5264L25.7546 11.6561C25.7546 11.1756 26.2611 10.7862 26.8859 10.7862L29.0259 10.7862Z" fill="#2C40DB"/>
<path d="M0 22.8529C0 20.4613 0.45722 18.3648 1.37166 16.5633C2.31658 14.7619 3.61204 13.3486 5.25804 12.3237C6.90403 11.2987 8.80912 10.7862 10.9733 10.7862C13.7776 10.7862 16.1094 11.5472 17.9688 13.0691C19.5104 14.3309 20.5386 15.9344 21.0535 17.8794C21.2252 18.528 20.7051 19.1258 20.0343 19.1258H17.8675C17.3627 19.1258 16.9323 18.778 16.7523 18.3064C16.3477 17.2463 15.7168 16.4168 14.8597 15.8179C13.7928 15.0724 12.5431 14.6997 11.1105 14.6997C9.76928 14.6997 8.58051 15.0414 7.54414 15.7247C6.50777 16.377 5.70002 17.3088 5.12087 18.5201C4.54172 19.7314 4.25215 21.1602 4.25215 22.8063C4.25215 24.4525 4.52648 25.8813 5.07515 27.0926C5.62381 28.2729 6.40109 29.2047 7.40697 29.888C8.41286 30.5402 9.58639 30.8664 10.9276 30.8664C12.4516 30.8664 13.7623 30.4781 14.8597 29.7016C15.7299 29.0858 16.3701 28.2942 16.7803 27.3267C16.9738 26.8701 17.3982 26.5335 17.8941 26.5335H20.053C20.7331 26.5335 21.2553 27.1472 21.0605 27.7988C20.7224 28.9304 20.1947 29.953 19.4776 30.8664C18.5327 32.0777 17.3134 33.0406 15.8198 33.7549C14.3567 34.4382 12.726 34.7799 10.9276 34.7799C8.73291 34.7799 6.81259 34.2829 5.16659 33.289C3.55108 32.2951 2.2861 30.913 1.37166 29.1425C0.45722 27.3411 0 25.2445 0 22.8529Z" fill="#2C40DB"/>
<circle cx="27.9559" cy="32.5786" r="2.20126" fill="#2C40DB"/>
</svg>
