<svg width="32" height="32" viewBox="0 0 32 32" fill="none" xmlns="http://www.w3.org/2000/svg">
<path d="M26.436 8.49201L14.174 12.476C14.0302 12.5689 13.8649 12.6233 13.694 12.634L9.48204 14H27C27.2653 14 27.5196 14.1054 27.7072 14.2929C27.8947 14.4804 28 14.7348 28 15V25C28 26.3261 27.4733 27.5979 26.5356 28.5355C25.5979 29.4732 24.3261 30 23 30H9.00004C7.67396 30 6.40219 29.4732 5.46451 28.5355C4.52683 27.5979 4.00004 26.3261 4.00004 25V15C4.00004 14.788 4.06604 14.59 4.18004 14.426L3.79004 13.222C3.38037 11.9609 3.4884 10.5887 4.09038 9.40726C4.69236 8.2258 5.73899 7.33184 7.00004 6.92201L20.314 2.59601C21.5751 2.18634 22.9473 2.29437 24.1288 2.89635C25.3103 3.49833 26.2042 4.54496 26.614 5.80601L27.078 7.23201C27.16 7.48423 27.1384 7.75867 27.018 7.99496C26.8976 8.23126 26.6883 8.41005 26.436 8.49201ZM18.948 8.82201L21.518 4.37001C21.3189 4.393 21.1226 4.43588 20.932 4.49801L18.442 5.30601L15.826 9.83601L18.948 8.82201ZM23.538 4.86401L23.498 4.93801L21.79 7.89801L24.866 6.89801L24.712 6.42401C24.5056 5.78766 24.0924 5.23856 23.538 4.86401ZM15.598 6.23001L12.478 7.24401L9.86004 11.774L12.98 10.76L15.598 6.23001ZM5.84604 13.08L7.02004 12.7L9.63404 8.16801L7.61804 8.82401C6.86141 9.06991 6.23343 9.60628 5.87225 10.3152C5.51106 11.024 5.44624 11.8474 5.69204 12.604L5.84604 13.08Z" fill="#502CDB"/>
</svg>
