<svg width="32" height="32" viewBox="0 0 32 32" fill="none" xmlns="http://www.w3.org/2000/svg">
<path fill-rule="evenodd" clip-rule="evenodd" d="M4.35829 9.54114L13.6069 3.06513C14.1034 2.71758 14.7176 2.58144 15.3145 2.68667C15.9114 2.7919 16.442 3.12988 16.7897 3.62628L18.2486 5.70914C18.2697 5.73942 18.2903 5.77085 18.3097 5.80228L4.35829 9.54114ZM1.22686 17.0514L0.594291 14.6903C0.437593 14.1047 0.519937 13.4808 0.823209 12.9559C1.12648 12.431 1.62584 12.0481 2.21143 11.8914L25.3931 5.67999C25.9787 5.52308 26.6025 5.60518 27.1275 5.90824C27.6525 6.2113 28.0356 6.71048 28.1926 7.29599L28.8503 9.75199C28.9432 10.0987 28.932 10.4651 28.8181 10.8055C28.7042 11.1459 28.4926 11.4453 28.2097 11.6663C27.7652 12.013 27.4331 12.4835 27.2553 13.0185C27.0775 13.5535 27.0619 14.1292 27.2106 14.673C27.3592 15.2169 27.6653 15.7046 28.0905 16.0748C28.5157 16.4451 29.0409 16.6813 29.6 16.7537C29.9454 16.7985 30.2697 16.945 30.5318 17.1744C30.7938 17.4038 30.9819 17.7059 31.072 18.0423L31.7417 20.5434C31.8986 21.1289 31.8165 21.7528 31.5135 22.2778C31.2104 22.8028 30.7112 23.1859 30.1257 23.3428L6.94286 29.5543C6.35742 29.711 5.7337 29.6288 5.20884 29.3258C4.68398 29.0227 4.30096 28.5237 4.14401 27.9383L3.51372 25.5851C3.41439 25.2148 3.42411 24.8237 3.54169 24.4588C3.65928 24.0939 3.87974 23.7707 4.17658 23.528C4.60344 23.1796 4.92047 22.7151 5.08947 22.1907C5.25847 21.6662 5.27225 21.1041 5.12914 20.572C4.98603 20.0399 4.69213 19.5605 4.28285 19.1915C3.87356 18.8226 3.36635 18.5799 2.82229 18.4926C2.44592 18.4319 2.09513 18.2636 1.81217 18.0081C1.52921 17.7526 1.32614 17.4208 1.22743 17.0526M21.5006 13.2303C21.7206 13.1744 21.9273 13.0754 22.1088 12.9389C22.2902 12.8025 22.4428 12.6314 22.5575 12.4355C22.6723 12.2397 22.7471 12.023 22.7774 11.798C22.8078 11.573 22.7932 11.3443 22.7344 11.125C22.6756 10.9057 22.5739 10.7003 22.4351 10.5207C22.2963 10.341 22.1232 10.1907 21.9259 10.0785C21.7285 9.96632 21.5109 9.89443 21.2855 9.86701C21.0602 9.8396 20.8316 9.85722 20.6131 9.91885C20.1793 10.0412 19.8111 10.3295 19.5883 10.7214C19.3655 11.1133 19.306 11.5771 19.4227 12.0125C19.5394 12.4479 19.8228 12.8198 20.2118 13.0478C20.6007 13.2757 21.0637 13.3413 21.5006 13.2303ZM22.6834 17.6463C22.9009 17.588 23.1048 17.4876 23.2834 17.3505C23.462 17.2135 23.6119 17.0426 23.7245 16.8477C23.8371 16.6527 23.9102 16.4375 23.9396 16.2143C23.9691 15.9911 23.9542 15.7643 23.896 15.5469C23.8378 15.3294 23.7373 15.1255 23.6003 14.9469C23.4632 14.7682 23.2924 14.6184 23.0974 14.5058C22.9025 14.3932 22.6873 14.3201 22.4641 14.2906C22.2409 14.2612 22.014 14.276 21.7966 14.3343C21.3574 14.452 20.9829 14.7393 20.7556 15.1331C20.5282 15.5268 20.4666 15.9948 20.5843 16.434C20.702 16.8732 20.9893 17.2477 21.3831 17.475C21.7768 17.7023 22.2442 17.764 22.6834 17.6463ZM23.8674 22.0617C24.088 22.0064 24.2954 21.9077 24.4776 21.7715C24.6597 21.6352 24.8128 21.4641 24.9282 21.2681C25.0435 21.0721 25.1186 20.855 25.1493 20.6297C25.1799 20.4043 25.1653 20.1751 25.1065 19.9554C25.0477 19.7357 24.9457 19.5299 24.8065 19.35C24.6674 19.1701 24.4938 19.0197 24.296 18.9075C24.0981 18.7954 23.8799 18.7237 23.6541 18.6967C23.4282 18.6697 23.1993 18.6879 22.9806 18.7503C22.5479 18.8736 22.1811 19.1621 21.9592 19.5535C21.7374 19.9449 21.6783 20.4078 21.7947 20.8424C21.911 21.2769 22.1936 21.6483 22.5814 21.8765C22.9691 22.1046 23.431 22.1711 23.8674 22.0617Z" fill="#502CDB"/>
</svg>
