<svg width="32" height="32" viewBox="0 0 32 32" fill="none" xmlns="http://www.w3.org/2000/svg">
<path d="M4 28V25.3333H6.66667V4H20V5.33333H25.3333V25.3333H28V28H22.6667V8H20V28H4ZM14.6667 17.3333C15.0444 17.3333 15.3613 17.2053 15.6173 16.9493C15.8733 16.6933 16.0009 16.3769 16 16C15.9991 15.6231 15.8711 15.3067 15.616 15.0507C15.3609 14.7947 15.0444 14.6667 14.6667 14.6667C14.2889 14.6667 13.9724 14.7947 13.7173 15.0507C13.4622 15.3067 13.3342 15.6231 13.3333 16C13.3324 16.3769 13.4604 16.6938 13.7173 16.9507C13.9742 17.2076 14.2907 17.3351 14.6667 17.3333Z" fill="#502CDB"/>
</svg>
