<svg width="32" height="32" viewBox="0 0 32 32" fill="none" xmlns="http://www.w3.org/2000/svg">
<path d="M20.4 22.2667L22.2666 20.4L17.3333 15.4667V9.33335H14.6666V16.5334L20.4 22.2667ZM16 29.3334C14.1555 29.3334 12.4222 28.9831 10.8 28.2827C9.17774 27.5822 7.76663 26.6325 6.56663 25.4334C5.36663 24.2342 4.41685 22.8231 3.71729 21.2C3.01774 19.5769 2.66752 17.8436 2.66663 16C2.66574 14.1565 3.01596 12.4231 3.71729 10.8C4.41863 9.17691 5.36841 7.7658 6.56663 6.56669C7.76485 5.36758 9.17596 4.4178 10.8 3.71735C12.424 3.01691 14.1573 2.66669 16 2.66669C17.8426 2.66669 19.576 3.01691 21.2 3.71735C22.824 4.4178 24.2351 5.36758 25.4333 6.56669C26.6315 7.7658 27.5817 9.17691 28.284 10.8C28.9862 12.4231 29.336 14.1565 29.3333 16C29.3306 17.8436 28.9804 19.5769 28.2826 21.2C27.5849 22.8231 26.6351 24.2342 25.4333 25.4334C24.2315 26.6325 22.8204 27.5827 21.2 28.284C19.5795 28.9854 17.8462 29.3351 16 29.3334Z" fill="#502CDB"/>
</svg>
